<svg xmlns="http://www.w3.org/2000/svg" width="40" height="40" viewBox="2222 400 40 40"><g data-name="Group 125"><g data-name="Rectangle 144"><path d="M2227 400h30a5 5 0 0 1 5 5v30a5 5 0 0 1-5 5h-30a5 5 0 0 1-5-5v-30a5 5 0 0 1 5-5z" fill="#fff" fill-rule="evenodd"/><path d="M2227.375 400.5h29.25a4.875 4.875 0 0 1 4.875 4.875v29.25a4.875 4.875 0 0 1-4.875 4.875h-29.25a4.875 4.875 0 0 1-4.875-4.875v-29.25a4.875 4.875 0 0 1 4.875-4.875z" stroke-linejoin="round" stroke-linecap="round" stroke="#707070" fill="transparent" stroke-width=".975"/></g><path d="M2249.945 418.91h-6.785v-6.785c0-.619-.506-1.125-1.125-1.125s-1.125.506-1.125 1.125v6.785h-6.785c-.619 0-1.125.506-1.125 1.125 0 .31.127.59.33.795.204.204.486.33.795.33h6.785v6.785c0 .31.127.59.33.795.205.204.486.33.795.33.619 0 1.125-.506 1.125-1.125v-6.785h6.785c.62 0 1.125-.506 1.125-1.125s-.506-1.125-1.125-1.125Z" fill="#303030" fill-rule="evenodd" data-name="Icon ionic-ios-add"/></g></svg>