<svg xmlns="http://www.w3.org/2000/svg" width="22.476" height="28.132" viewBox="2251.948 75.934 22.476 28.132"><g data-name="Icon ionic-ios-notifications-outline"><path d="M2265.542 100.34a.91.91 0 0 0-.893.717c-.07.316-.19.576-.351.766-.091.105-.359.415-1.132.415-.774 0-1.04-.317-1.132-.415-.162-.19-.281-.45-.352-.766a.91.91 0 0 0-.893-.718.917.917 0 0 0-.893 1.118c.352 1.568 1.477 2.609 3.27 2.609s2.918-1.034 3.27-2.609a.92.92 0 0 0-.894-1.118Z" fill-rule="evenodd" data-name="Path 1"/><path d="M2274.142 96.768c-1.083-1.428-3.214-2.265-3.214-8.656 0-6.56-2.896-9.197-5.596-9.83-.254-.063-.436-.147-.436-.414v-.204c0-.936-.76-1.73-1.688-1.73h-.042c-.928 0-1.688.794-1.688 1.73v.204c0 .26-.182.351-.436.414-2.707.64-5.596 3.27-5.596 9.83 0 6.391-2.13 7.221-3.214 8.656-.696.92-.035 2.235 1.118 2.235h19.695c1.132 0 1.786-1.321 1.097-2.235Zm-2.743.407h-16.396a.308.308 0 0 1-.232-.513 8.518 8.518 0 0 0 1.476-2.348c.675-1.59 1.006-3.621 1.006-6.202 0-2.623.492-4.676 1.47-6.103.871-1.28 1.96-1.765 2.72-1.94.59-.141 1.013-.408 1.308-.739a.556.556 0 0 1 .837-.014c.358.4.844.64 1.322.752.759.176 1.849.661 2.72 1.941.978 1.427 1.47 3.48 1.47 6.103 0 2.58.33 4.613 1.006 6.202a8.615 8.615 0 0 0 1.511 2.383c.155.19.029.478-.218.478Z" fill-rule="evenodd" data-name="Path 2"/></g></svg>