<svg xmlns="http://www.w3.org/2000/svg" width="40" height="40" viewBox="0 0 40 40">
  <g id="edit" transform="translate(-2222 -491)">
    <g id="Group_92" data-name="Group 92" transform="translate(929 -9)">
      <g id="Rectangle_144" data-name="Rectangle 144" transform="translate(1293 500)" fill="#fff" stroke="#707070" stroke-width="1">
        <rect width="40" height="40" rx="5" stroke="none"/>
        <rect x="0.5" y="0.5" width="39" height="39" rx="4.5" fill="none"/>
      </g>
      <g id="Icon_feather-edit" data-name="Icon feather-edit" transform="translate(1300 507.182)">
        <path id="Path_15" data-name="Path 15" d="M11.728,6H4.94A1.94,1.94,0,0,0,3,7.94V21.516a1.94,1.94,0,0,0,1.94,1.94H18.516a1.94,1.94,0,0,0,1.94-1.94V14.728" transform="translate(0 -1.125)" fill="none" stroke="#000" stroke-linecap="round" stroke-linejoin="round" stroke-width="1"/>
        <path id="Path_16" data-name="Path 16" d="M22.183,3.421A2.057,2.057,0,0,1,25.092,6.33l-9.213,9.213L12,16.512l.97-3.879Z" transform="translate(-3.181 0)" fill="none" stroke="#000" stroke-linecap="round" stroke-linejoin="round" stroke-width="1"/>
      </g>
    </g>
  </g>
</svg>
